<svg width="120" height="24" viewBox="0 0 120 24" fill="none" xmlns="http://www.w3.org/2000/svg">
<path d="M8.15 13.4L5.825 21L12 16.3L18.175 21L15.85 13.4L22 9H14.4L12 1L9.6 9H2L8.15 13.4Z" fill="black"/>
<path d="M32.15 13.4L29.825 21L36 16.3L42.175 21L39.85 13.4L46 9H38.4L36 1L33.6 9H26L32.15 13.4Z" fill="black"/>
<path d="M56.15 13.4L53.825 21L60 16.3L66.175 21L63.85 13.4L70 9H62.4L60 1L57.6 9H50L56.15 13.4Z" fill="black"/>
<path d="M80.15 13.4L77.825 21L84 16.3L90.175 21L87.85 13.4L94 9H86.4L84 1L81.6 9H74L80.15 13.4Z" fill="black"/>
<path d="M104.15 13.4L101.825 21L108 16.3L114.175 21L111.85 13.4L118 9H110.4L108 1L105.6 9H98L104.15 13.4Z" fill="black"/>
</svg>
